
<svg xmlns="http://www.w3.org/2000/svg" version="1.1" xmlns:xlink="http://www.w3.org/1999/xlink" preserveAspectRatio="none" x="0px" y="0px" width="326px" height="29px" viewBox="0 0 326 29">
<defs>
<g id="Layer0_0_FILL">
<path fill="#000000" stroke="none" d="
M 168.05 207.95
L 166.65 207.95
Q 166.65 210.35 165.45 212.15 164.3 213.95 162.2 214
L 162.2 215.1 164.65 215.1 164.65 223.3
Q 164.65 227.2 169.4 227.2 171.05 227.2 172.05 226.1 173 224.95 173 223.3
L 173 221.7 171.6 221.7 171.6 223.2
Q 171.6 224.65 171.05 225.3 170.5 225.95 169.8 225.95 168.05 225.95 168.05 223.35
L 168.05 215.1 172.45 215.1 172.45 213.7 168.05 213.7 168.05 207.95
M 185.6 218.05
L 185.6 219.05
Q 175.9 219.45 175.9 223.75 175.9 224.8 176.5 225.5 177.1 226.2 178.05 226.6 179 226.9 179.95 227.05
L 181.75 227.2
Q 184.85 227.2 186.1 224.7
L 186.15 225.45 186.5 226.15
Q 186.75 226.6 187.45 226.8 188.1 227 189.25 227
L 190.65 227 191.45 226.9
Q 191.65 226.75 191.65 226.3 191.65 225.95 191.5 225.8
L 191.25 225.6 190.85 225.6
Q 190 225.6 189.55 225.45 189.15 225.25 189.1 225.1
L 189.05 224.5 189.05 218.05
Q 189.05 215.95 187.35 214.65 185.65 213.4 182.45 213.4 177.1 213.4 177.1 216.15 177.1 217.05 177.65 217.55 178.25 218.05 178.9 218.05 179.75 218.05 180.35 217.55 180.95 217.05 180.95 216.15 180.95 215.15 180.2 214.7 181.2 214.5 182.4 214.5 185.6 214.5 185.6 218.05
M 182.75 220.4
L 185.6 220 185.6 222.85
Q 185.6 223.8 185.2 224.5 184.8 225.25 184.15 225.55
L 183.05 225.95 182.2 226.1
Q 181 226.1 180.2 225.4 179.35 224.75 179.35 223.75 179.35 222.8 179.85 222.1 180.4 221.4 181.1 221.05 181.8 220.65 182.75 220.4
M 207.65 214
L 207.65 215.1 210.1 215.1 210.1 223.3
Q 210.1 227.2 214.85 227.2 216.5 227.2 217.5 226.1 218.45 224.95 218.45 223.3
L 218.45 221.7 217.05 221.7 217.05 223.2
Q 217.05 224.65 216.5 225.3 215.95 225.95 215.25 225.95 213.5 225.95 213.5 223.35
L 213.5 215.1 217.9 215.1 217.9 213.7 213.5 213.7 213.5 207.95 212.1 207.95
Q 212.1 210.35 210.9 212.15 209.75 213.95 207.65 214
M 203.8 218.05
Q 204.6 218.05 205.15 217.55 205.75 217.05 205.75 216.15 205.75 213.4 200.45 213.4 196.65 213.4 194.75 215.45 192.85 217.45 192.85 220.35 192.85 223.35 194.85 225.25 196.85 227.2 200.3 227.2 201.65 227.2 202.75 226.8 203.85 226.45 204.45 225.95 205.1 225.45 205.5 224.9
L 206 223.95 206.15 223.5
Q 206.15 223.05 205.4 223.05
L 204.9 223.15 204.7 223.5
Q 203.65 225.95 200.85 225.95 196.7 225.95 196.7 220.2
L 196.7 218.95 196.95 217.55
Q 197.15 216.6 197.5 216.05 197.9 215.5 198.65 215.05 199.45 214.6 200.55 214.6 201.75 214.6 202.5 214.8 201.9 215.35 201.9 216.15 201.9 217.05 202.5 217.55 203.1 218.05 203.8 218.05
M 243.5 222.45
Q 244.35 221.75 244.7 220.55
L 245.15 218.45 245.25 216.65
Q 245.25 211.8 242.15 208.9 239.05 206 233.8 206 228.45 206 225.4 209 222.3 211.95 222.3 216.6 222.3 218.7 223 220.6 223.75 222.45 225.1 223.95 226.5 225.45 228.75 226.3 231 227.2 233.95 227.2 236.55 227.2 239.3 226.65 242 226.15 243.3 225.7
L 245.2 224.9 245.25 224.85
Q 245.25 224.75 245.25 224.65 245.25 224.2 244.4 224.2
L 243.7 224.2
Q 243.2 224.2 242.7 224.4 238.3 226.1 233.9 226.1 228.95 226.1 226.35 223.4 223.75 220.65 223.75 216.6 223.75 212.35 226.45 209.7 229.15 207.1 233.75 207.1 238.15 207.1 241 209.55 243.85 212.05 243.85 216.8 243.85 222.1 241.7 222.1 240.7 222.1 240.7 220.3
L 240.7 213.4
Q 240.7 212.8 240.55 212.65 240.45 212.55 239.8 212.55
L 238.6 212.55
Q 237.9 211.45 236.65 210.75 235.4 210 233.75 210 230.7 210 228.8 211.8 226.9 213.6 226.9 216.6 226.9 219.55 228.8 221.35 230.65 223.15 233.75 223.15 236.05 223.15 237.65 221.8 238.65 223.15 241.4 223.15 242.65 223.15 243.5 222.45
M 231.35 220.7
Q 230.35 219.3 230.35 216.6 230.35 213.85 231.35 212.5 232.4 211.1 233.85 211.1 236 211.1 237.25 212.85
L 237.25 220.35
Q 236.05 222.1 233.85 222.1 232.35 222.1 231.35 220.7
M 263.95 215.1
Q 263.95 214.45 263.45 213.9 263 213.35 262.05 213.35 260.3 213.35 258.85 214.5 257.3 213.5 254.7 213.5 251.75 213.5 250.35 214.85 248.9 216.15 248.9 217.95 248.9 218.85 249.3 219.75 249.7 220.6 250.4 221.1 249.15 222.4 249.15 223.75 249.15 225.6 250.7 226.65
L 250.1 226.85 249.3 227.25
Q 248.8 227.55 248.5 228.05 248.15 228.6 248.15 229.25 248.15 230.7 249.95 231.85 251.7 233.05 255.7 233.05 259.55 233.05 261.5 231.95 263.45 230.85 263.45 229.15 263.45 226.5 261.15 225.35 260.35 224.95 259.3 224.75
L 257.4 224.55 252.5 224.5
Q 251.65 224.35 251.25 223.75 250.9 223.15 250.9 222.6 250.9 222 251.15 221.6 252.6 222.4 254.7 222.4 257.8 222.4 259.3 221.05 260.85 219.75 260.85 217.95 260.85 216.35 259.6 215.05 260.5 214.6 261.5 214.5
L 261.35 215.1
Q 261.35 215.65 261.75 216.05 262.1 216.4 262.65 216.4 263.25 216.4 263.6 216 263.95 215.65 263.95 215.1
M 252.3 216.2
Q 252.4 215.65 252.7 215.35 252.95 215.05 253.5 214.85 254 214.6 254.75 214.6 255.5 214.6 256.05 214.85 256.6 215.05 256.85 215.35 257.1 215.65 257.25 216.2
L 257.4 217.05 257.4 218.85 257.25 219.7
Q 257.1 220.2 256.85 220.55 256.6 220.8 256.05 221.05 255.5 221.3 254.75 221.3 254 221.3 253.5 221.05 252.95 220.8 252.7 220.55 252.4 220.2 252.3 219.7
L 252.1 217.95 252.3 216.2
M 259.65 231.1
Q 258.4 231.95 255.7 231.95 253.25 231.95 252 231.15 250.75 230.35 250.75 229.2 250.75 227.4 253.05 227.4
L 256.55 227.4
Q 260.9 227.4 260.9 229.25 260.9 230.25 259.65 231.1
M 267.6 208
Q 267.9 208.15 267.9 209
L 267.9 225.6 265.8 225.6 265.8 227 273.2 227 273.2 225.6 271.1 225.6 271.1 206.2 265.8 206.4 265.8 207.85
Q 267.25 207.85 267.6 208
M 287.8 220.45
Q 288.4 220.45 288.6 220.35 288.75 220.2 288.75 219.65 288.75 216.7 287.1 215.05 285.4 213.4 282.3 213.4 278.85 213.4 276.9 215.35 274.9 217.3 274.9 220.25 274.9 223.3 277.05 225.25 279.15 227.2 282.75 227.2 284.1 227.2 285.2 226.85 286.3 226.5 286.95 226.05 287.55 225.55 288 225
L 288.6 224.05 288.75 223.5
Q 288.75 222.95 288 222.95
L 287.45 223.05 287.2 223.6
Q 286.7 224.65 285.6 225.3 284.4 225.95 283 225.95
L 282.95 225.95
Q 278.75 225.95 278.75 220.45
L 287.8 220.45
M 278.75 219.45
Q 278.85 217 279.45 216.05 280.5 214.5 282.3 214.5 285.75 214.5 285.9 219.45
L 278.75 219.45
M 306.15 217.8
Q 306.15 215.5 305 214.5 303.85 213.5 301.6 213.5 298.05 213.5 296.4 216.75
L 296.4 213.5 291.25 213.75 291.25 215.15
Q 292.6 215.15 292.85 215.35 293.15 215.5 293.15 216.3
L 293.15 225.6 291.25 225.6 291.25 227 298.65 227 298.65 225.6 296.6 225.6 296.6 219.3
Q 296.6 217.05 298 215.8 299.4 214.6 301.05 214.6 301.85 214.6 302.3 215.2 302.7 215.85 302.7 217.5
L 302.7 225.6 300.65 225.6 300.65 227 308.2 227 308.2 225.6 306.15 225.6 306.15 217.8
M 128.25 215.4
Q 126.2 217.4 126.2 220.45 126.2 223.4 128.2 225.3 130.25 227.2 133.85 227.2 137.5 227.2 139.5 225.3 141.5 223.4 141.5 220.45 141.5 217.4 139.45 215.4 137.45 213.4 133.85 213.4 130.25 213.4 128.25 215.4
M 130.05 220.15
Q 130.05 217.25 130.55 216.25 131.45 214.5 133.85 214.5 136.1 214.5 137.05 216 137.65 217.05 137.65 220.15
L 137.55 222.8
Q 137.4 223.6 137.2 224.05
L 136.55 225
Q 136.15 225.55 135.45 225.75 134.8 225.95 133.85 225.95 132.95 225.95 132.25 225.75 131.6 225.55 131.2 225
L 130.55 224.05
Q 130.3 223.6 130.2 222.8
L 130.05 220.15
M 123.4 217.55
Q 124 217.05 124 216.15 124 213.4 118.7 213.4 114.9 213.4 113 215.45 111.1 217.45 111.1 220.35 111.1 223.35 113.1 225.25 115.1 227.2 118.55 227.2 119.9 227.2 121 226.8 122.1 226.45 122.7 225.95 123.35 225.45 123.75 224.9
L 124.25 223.95 124.4 223.5
Q 124.4 223.05 123.65 223.05
L 123.15 223.15 122.95 223.5
Q 121.9 225.95 119.1 225.95 114.95 225.95 114.95 220.2
L 114.95 218.95 115.2 217.55
Q 115.4 216.6 115.75 216.05 116.15 215.5 116.9 215.05 117.7 214.6 118.8 214.6 120 214.6 120.75 214.8 120.15 215.35 120.15 216.15 120.15 217.05 120.75 217.55 121.35 218.05 122.05 218.05 122.85 218.05 123.4 217.55
M 149.1 213.5
L 143.95 213.75 143.95 215.15
Q 145.3 215.15 145.55 215.35 145.85 215.5 145.85 216.3
L 145.85 225.6 143.95 225.6 143.95 227 151.35 227 151.35 225.6 149.3 225.6 149.3 219.3
Q 149.3 217.05 150.7 215.8 152.1 214.6 153.75 214.6 154.55 214.6 155 215.2 155.4 215.85 155.4 217.5
L 155.4 225.6 153.35 225.6 153.35 227 160.9 227 160.9 225.6 158.85 225.6 158.85 217.8
Q 158.85 215.5 157.7 214.5 156.55 213.5 154.3 213.5 150.75 213.5 149.1 216.75
L 149.1 213.5
M 326.25 215.1
L 326.25 213.7 321.15 213.7 321.15 215.1 321.25 215.1
Q 322.6 215.1 322.6 215.4 322.55 215.6 322.45 215.8
L 318.95 223.3 315.15 215.1 316.75 215.1 316.75 213.7 309.65 213.7 309.65 215.1 311.55 215.1 316.8 226.35
Q 317.15 227.1 317.95 227.1 318.7 227.1 319.05 226.4
L 324.05 215.7
Q 324.2 215.35 324.55 215.2 324.95 215.1 326.25 215.1
M 342.95 206.2
L 337.65 206.4 337.65 207.85
Q 339.1 207.85 339.4 208 339.7 208.15 339.7 209
L 339.7 214.85
Q 338 213.5 335.65 213.5 332.35 213.5 330.25 215.35 328.15 217.25 328.15 220.35 328.15 223.35 330.1 225.25 332.05 227.2 335.35 227.2 337.7 227.2 339.55 225.7
L 339.55 227.2 345.05 227 345.05 225.6
Q 343.6 225.6 343.3 225.45 342.95 225.25 342.95 224.4
L 342.95 206.2
M 332 220.35
Q 332 217.3 332.75 216.15 333.85 214.6 335.95 214.6 338.15 214.6 339.55 216.4
L 339.55 223.9
Q 337.95 226.1 335.65 226.1 334.75 226.1 334.1 225.85 333.45 225.6 333.05 225.05
L 332.45 224.05
Q 332.2 223.55 332.1 222.75
L 332 220.35
M 348.95 208
Q 349.3 208.15 349.3 209
L 349.3 227 350.7 227 352.15 225.3
Q 354 227.2 356.55 227.2 359.9 227.2 362 225.3 364.1 223.45 364.1 220.3 364.1 217.25 362.15 215.4 360.15 213.5 356.95 213.5 354.3 213.5 352.5 214.95
L 352.5 206.2 347.2 206.4 347.2 207.85
Q 348.65 207.85 348.95 208
M 359.2 215.6
L 359.8 216.65
Q 360.05 217.15 360.15 217.9
L 360.25 220.3
Q 360.25 223.35 359.45 224.5 358.35 226.1 356.25 226.1 354.1 226.1 352.7 224
L 352.7 216.5
Q 353.35 215.65 354.4 215.1 355.45 214.6 356.6 214.6 357.45 214.6 358.15 214.85 358.8 215.1 359.2 215.6
M 367.65 224.65
Q 367.65 225.65 368.35 226.35 369 227 369.95 227 370.9 227 371.55 226.3 372.2 225.55 372.2 224.65 372.2 223.65 371.55 223 370.85 222.35 369.95 222.35 369.05 222.35 368.35 223 367.65 223.65 367.65 224.65
M 393.05 215.4
Q 391 217.4 391 220.45 391 223.4 393 225.3 395.05 227.2 398.65 227.2 402.3 227.2 404.3 225.3 406.3 223.4 406.3 220.45 406.3 217.4 404.25 215.4 402.25 213.4 398.65 213.4 395.05 213.4 393.05 215.4
M 401.85 216
Q 402.45 217.05 402.45 220.15
L 402.35 222.8
Q 402.2 223.6 402 224.05
L 401.35 225
Q 400.95 225.55 400.25 225.75 399.6 225.95 398.65 225.95 397.75 225.95 397.05 225.75 396.4 225.55 396 225
L 395.35 224.05
Q 395.1 223.6 395 222.8
L 394.85 220.15
Q 394.85 217.25 395.35 216.25 396.25 214.5 398.65 214.5 400.9 214.5 401.85 216
M 388.2 217.55
Q 388.8 217.05 388.8 216.15 388.8 213.4 383.5 213.4 379.7 213.4 377.8 215.45 375.9 217.45 375.9 220.35 375.9 223.35 377.9 225.25 379.9 227.2 383.35 227.2 384.7 227.2 385.8 226.8 386.9 226.45 387.5 225.95 388.15 225.45 388.55 224.9
L 389.05 223.95 389.2 223.5
Q 389.2 223.05 388.45 223.05
L 387.95 223.15 387.75 223.5
Q 386.7 225.95 383.9 225.95 379.75 225.95 379.75 220.2
L 379.75 218.95 380 217.55
Q 380.2 216.6 380.55 216.05 380.95 215.5 381.7 215.05 382.5 214.6 383.6 214.6 384.8 214.6 385.55 214.8 384.95 215.35 384.95 216.15 384.95 217.05 385.55 217.55 386.15 218.05 386.85 218.05 387.65 218.05 388.2 217.55
M 432.1 214.5
Q 431 213.5 428.6 213.5 425.2 213.5 423.55 216.4 422.95 213.5 419.1 213.5 415.55 213.5 413.9 216.75
L 413.9 213.5 408.75 213.75 408.75 215.15
Q 410.1 215.15 410.35 215.35 410.65 215.5 410.65 216.3
L 410.65 225.6 408.75 225.6 408.75 227 416.15 227 416.15 225.6 414.1 225.6 414.1 219.3
Q 414.1 217.05 415.5 215.8 416.95 214.6 418.55 214.6 419.4 214.6 419.8 215.2 420.25 215.85 420.25 217.5
L 420.25 225.6 418.2 225.6 418.2 227 425.75 227 425.75 225.6 423.65 225.6 423.65 219.3
Q 423.65 217.05 425.1 215.8 426.5 214.6 428.1 214.6 428.95 214.6 429.4 215.2 429.8 215.85 429.8 217.5
L 429.8 225.6 427.75 225.6 427.75 227 435.3 227 435.3 225.6 433.25 225.6 433.25 217.8
Q 433.25 215.55 432.1 214.5 Z"/>
</g>
</defs>

<g transform="matrix( 1, 0, 0, 1, -110.2,-205) ">
<use xlink:href="#Layer0_0_FILL"/>
</g>
</svg>
