
<svg xmlns="http://www.w3.org/2000/svg" version="1.1" xmlns:xlink="http://www.w3.org/1999/xlink" preserveAspectRatio="none" x="0px" y="0px" width="155px" height="14px" viewBox="0 0 155 14">
<defs>
<g id="Layer0_0_FILL">
<path fill="#828282" stroke="none" d="
M 6.35 4.55
Q 6.15 4.1 5.75 3.75 5.35 3.4 4.8 3.2 4.2 2.95 3.5 2.95 2.75 2.95 2.1 3.2 1.5 3.45 1.05 3.9 0.6 4.35 0.4 5 0.15 5.65 0.15 6.4
L 0.15 7.5
Q 0.15 8.3 0.4 8.95 0.6 9.6 1.05 10.05 1.5 10.5 2.1 10.75 2.75 11 3.5 11 4.25 11 4.85 10.8 5.4 10.6 5.85 10.25 6.2 9.9 6.4 9.45 6.6 9 6.6 8.5
L 5.1 8.5
Q 5 9 4.65 9.25 4.25 9.6 3.55 9.6 3.15 9.6 2.8 9.45 2.5 9.3 2.25 9 2 8.75 1.9 8.35 1.8 7.95 1.8 7.5
L 1.8 6.45
Q 1.8 5.95 1.9 5.6 2 5.2 2.25 4.95 2.45 4.65 2.8 4.5 3.1 4.4 3.55 4.4 3.9 4.4 4.2 4.5 4.5 4.6 4.65 4.8 5 5.1 5.05 5.55
L 6.6 5.55
Q 6.55 5.05 6.35 4.55
M 14.85 5
Q 14.6 4.35 14.15 3.9 13.7 3.45 13.05 3.2 12.4 2.95 11.65 2.95 10.9 2.95 10.25 3.2 9.65 3.45 9.15 3.95 8.7 4.4 8.45 5.05 8.2 5.7 8.2 6.5
L 8.2 7.45
Q 8.2 8.3 8.45 8.95 8.7 9.6 9.15 10.05 9.6 10.5 10.25 10.75 10.9 11 11.65 11 12.4 11 13.05 10.75 13.7 10.5 14.15 10.05 14.6 9.6 14.85 8.95 15.1 8.3 15.1 7.45
L 15.1 6.5
Q 15.1 5.65 14.85 5
M 11.65 4.35
Q 12.1 4.35 12.45 4.5 12.75 4.65 13 4.95 13.2 5.25 13.35 5.65 13.45 6.05 13.45 6.55
L 13.45 7.4
Q 13.45 7.9 13.35 8.3 13.25 8.7 13 9 12.8 9.3 12.45 9.45 12.1 9.6 11.65 9.6 11.2 9.6 10.85 9.45 10.55 9.3 10.3 9 10.1 8.7 9.95 8.3 9.85 7.9 9.85 7.4
L 9.85 6.55
Q 9.85 6.05 9.95 5.65 10.1 5.25 10.3 4.95 10.55 4.65 10.9 4.5 11.25 4.35 11.65 4.35
M 20.65 4.45
Q 21 4.45 21.25 4.55 21.55 4.65 21.75 4.85 21.95 5.05 22.05 5.35 22.15 5.7 22.15 6.1
L 22.15 10.85 23.8 10.85 23.8 5.65
Q 23.8 4.95 23.6 4.45 23.4 3.95 23.05 3.65 22.7 3.3 22.25 3.15 21.75 3 21.2 3 20.6 3 20.2 3.15 19.8 3.25 19.5 3.5 19.05 3.9 18.85 4.5
L 18.75 4.5 18.75 3.1 17.15 3.1 17.15 10.85 18.8 10.85 18.8 6.55
Q 18.8 6.1 18.9 5.7 19.05 5.3 19.25 5.05 19.5 4.75 19.85 4.6 20.2 4.45 20.65 4.45
M 26.7 3.15
L 25.5 3.15 25.5 4.5 26.65 4.5 26.65 8.65
Q 26.65 9.3 26.75 9.7 26.9 10.1 27.15 10.35 27.45 10.65 27.9 10.75 28.35 10.9 29.05 10.9
L 30.1 10.85 30.1 9.55 29.45 9.55
Q 28.8 9.55 28.55 9.35 28.3 9.1 28.3 8.5
L 28.3 4.5 30 4.5 30 3.15 28.3 3.15 28.3 1.25 26.7 1.25 26.7 3.15
M 35.9 4.65
Q 36.3 4.95 36.3 5.6
L 36.3 6.3 34.35 6.3
Q 33.7 6.3 33.15 6.45 32.65 6.65 32.3 6.95 31.95 7.25 31.8 7.65 31.6 8.1 31.6 8.6 31.6 9.15 31.8 9.6 31.95 10 32.3 10.35 32.65 10.65 33.1 10.8 33.6 10.95 34.15 10.95 34.7 10.95 35.5 10.65 36 10.35 36.3 9.85
L 36.35 9.85 36.35 10.85 37.9 10.85 37.9 5.6
Q 37.9 4.9 37.7 4.4 37.45 3.9 37.05 3.55 36.65 3.25 36.05 3.1 35.55 3 34.9 3 34.2 3 33.65 3.15 33.1 3.3 32.7 3.6 32.35 3.9 32.15 4.3 31.95 4.7 31.9 5.2
L 33.45 5.2
Q 33.55 4.8 33.85 4.55 34.2 4.3 34.85 4.3 35.55 4.3 35.9 4.65
M 33.55 7.7
Q 33.9 7.4 34.6 7.4
L 36.3 7.4 36.3 8.25
Q 36.3 8.55 36.15 8.8 36.05 9.05 35.8 9.25 35.6 9.45 35.3 9.55 35 9.65 34.65 9.65 34.05 9.65 33.65 9.4 33.25 9.05 33.25 8.5 33.25 8 33.55 7.7
M 46.35 5.55
Q 46.3 5.05 46.1 4.55 45.9 4.1 45.5 3.75 45.1 3.4 44.55 3.2 43.95 2.95 43.25 2.95 42.5 2.95 41.85 3.2 41.25 3.45 40.8 3.9 40.35 4.35 40.15 5 39.9 5.65 39.9 6.4
L 39.9 7.5
Q 39.9 8.3 40.15 8.95 40.35 9.6 40.8 10.05 41.25 10.5 41.85 10.75 42.5 11 43.25 11 44 11 44.6 10.8 45.15 10.6 45.6 10.25 45.95 9.9 46.15 9.45 46.35 9 46.35 8.5
L 44.85 8.5
Q 44.75 9 44.4 9.25 44 9.6 43.3 9.6 42.9 9.6 42.55 9.45 42.25 9.3 42 9 41.75 8.75 41.65 8.35 41.55 7.95 41.55 7.5
L 41.55 6.45
Q 41.55 5.95 41.65 5.6 41.75 5.2 42 4.95 42.2 4.65 42.55 4.5 42.85 4.4 43.3 4.4 43.65 4.4 43.95 4.5 44.25 4.6 44.4 4.8 44.75 5.1 44.8 5.55
L 46.35 5.55
M 52.15 4.5
L 52.15 3.15 50.45 3.15 50.45 1.25 48.85 1.25 48.85 3.15 47.65 3.15 47.65 4.5 48.8 4.5 48.8 8.65
Q 48.8 9.3 48.9 9.7 49.05 10.1 49.3 10.35 49.6 10.65 50.05 10.75 50.5 10.9 51.2 10.9
L 52.25 10.85 52.25 9.55 51.6 9.55
Q 50.95 9.55 50.7 9.35 50.45 9.1 50.45 8.5
L 50.45 4.5 52.15 4.5
M 62.8 2.1
Q 62.35 1.8 61.85 1.6 61.35 1.4 60.8 1.3 60.2 1.2 59.55 1.2
L 59.5 1.2
Q 58.9 1.2 58.3 1.3 57.75 1.4 57.2 1.6 56.7 1.8 56.25 2.05 55.8 2.35 55.45 2.75 55.05 3.1 54.75 3.55 54.45 4 54.25 4.5 54.05 5.05 53.95 5.6 53.8 6.2 53.8 6.85
L 53.8 7.25
Q 53.8 7.95 53.95 8.55 54.05 9.15 54.25 9.65 54.45 10.2 54.75 10.6 55.05 11.05 55.45 11.4 55.8 11.75 56.25 12 56.7 12.3 57.2 12.45 57.7 12.65 58.25 12.7 58.8 12.8 59.4 12.8
L 59.45 12.8
Q 60.55 12.8 61.75 12.5
L 61.75 11.4
Q 61.35 11.6 60.8 11.65 60.25 11.75 59.5 11.75
L 59.4 11.75
Q 58.5 11.75 57.75 11.5 56.7 11.05 56.3 10.65 56 10.35 55.75 10 55.5 9.65 55.35 9.25 55.15 8.8 55.05 8.3 55 7.8 55 7.2
L 55 6.9
Q 55 6.35 55.05 5.9 55.15 5.4 55.3 4.95 55.5 4.55 55.7 4.15 55.95 3.8 56.25 3.5 56.55 3.2 56.9 2.95 57.3 2.7 57.7 2.55
L 58.55 2.3 59.5 2.25 59.55 2.25
Q 60.2 2.25 61.35 2.55 61.9 2.75 62.7 3.4 63.25 3.95 63.55 4.7 63.8 5.4 63.8 6.2
L 63.8 6.45
Q 63.8 7.05 63.7 7.55 63.6 8 63.45 8.3 63.25 8.6 63 8.75 62.8 8.9 62.55 8.9 62.15 8.9 61.95 8.65 61.7 8.45 61.7 8.05
L 61.7 4.45 60.5 4.45 60.5 5.35 60.45 5.35
Q 60.35 4.95 60 4.7 59.55 4.35 58.95 4.35 58.5 4.35 58.1 4.5 57.75 4.7 57.45 5 57.2 5.3 57.1 5.75 56.95 6.2 56.95 6.7
L 56.95 7.45
Q 56.95 8 57.05 8.45 57.2 8.9 57.45 9.2 57.7 9.55 58.1 9.7 58.45 9.9 58.9 9.9 59.55 9.9 60 9.55 60.45 9.25 60.55 8.85
L 60.65 8.85
Q 60.75 9.3 61.2 9.55 61.65 9.9 62.4 9.9 62.95 9.9 63.4 9.65 63.9 9.4 64.25 8.95 64.6 8.5 64.75 7.9 64.95 7.3 64.95 6.55
L 64.95 6.15
Q 64.95 5.7 64.85 5.2 64.75 4.75 64.6 4.3 64.4 3.85 64.15 3.45 63.9 3.05 63.55 2.7 63.2 2.35 62.8 2.1
M 58.5 5.75
Q 58.8 5.4 59.3 5.4 59.8 5.4 60.1 5.75 60.45 6.1 60.45 6.75
L 60.45 7.35
Q 60.45 8.1 60.1 8.45 59.85 8.8 59.35 8.8 58.8 8.8 58.5 8.45 58.2 8.05 58.2 7.3
L 58.2 6.85
Q 58.2 6.15 58.5 5.75
M 75.7 10.85
L 77.35 10.85 77.35 0.35 75.7 0.35 75.7 10.85
M 71.7 4.3
Q 71.5 3.75 70.95 3.4 70.65 3.2 70.3 3.1 69.9 3 69.5 3 68.85 3 68.3 3.25 67.75 3.45 67.35 3.9 66.95 4.3 66.7 4.95 66.5 5.6 66.5 6.35
L 66.5 7.35
Q 66.5 8.15 66.7 8.75 66.95 9.4 67.35 9.8 67.75 10.25 68.3 10.5 68.85 10.7 69.5 10.7 69.9 10.7 70.25 10.6 70.6 10.5 70.85 10.35 71.45 10 71.65 9.5
L 71.75 9.5 71.75 10.6
Q 71.75 11 71.65 11.35 71.5 11.7 71.3 11.9 71.05 12.15 70.7 12.25 70.35 12.35 69.9 12.35 69.2 12.35 68.75 12.1 68.35 11.9 68.25 11.45
L 66.65 11.45
Q 66.7 11.95 66.9 12.3 67.1 12.7 67.5 13 67.9 13.35 68.45 13.5 69.1 13.7 69.85 13.7 70.6 13.7 71.2 13.5 71.85 13.35 72.3 13 72.8 12.6 73.1 12.05 73.35 11.45 73.35 10.65
L 73.35 3.1 71.8 3.1 71.8 4.3 71.7 4.3
M 71.25 5
Q 71.5 5.25 71.65 5.6 71.75 6 71.75 6.4
L 71.75 7.4
Q 71.75 7.8 71.65 8.15 71.5 8.55 71.3 8.8 71.05 9.05 70.75 9.2 70.4 9.4 70 9.4 69.6 9.4 69.25 9.2 68.9 9.1 68.65 8.8 68.4 8.5 68.3 8.1 68.15 7.7 68.15 7.2
L 68.15 6.55
Q 68.15 6.05 68.3 5.65 68.4 5.25 68.65 5 68.9 4.7 69.2 4.55 69.55 4.4 70 4.4 70.4 4.4 70.7 4.55 71.05 4.7 71.25 5
M 85.85 5
Q 85.6 4.4 85.15 3.9 84.7 3.45 84.1 3.2 83.5 2.95 82.8 2.95 82.05 2.95 81.45 3.2 80.85 3.45 80.4 3.9 79.95 4.35 79.7 5 79.45 5.65 79.45 6.45
L 79.45 7.5
Q 79.45 8.3 79.7 8.95 79.95 9.6 80.4 10.05 80.8 10.5 81.45 10.75 82.1 11 82.9 11 83.6 11 84.25 10.75 84.8 10.55 85.2 10.2 85.55 9.9 85.75 9.5 85.95 9.1 86 8.75
L 84.4 8.75
Q 84.35 9.1 83.9 9.35 83.5 9.65 82.85 9.65 82.45 9.65 82.1 9.5 81.8 9.35 81.55 9.1 81.3 8.85 81.2 8.5 81.05 8.15 81.05 7.75
L 81.05 7.35 86.1 7.35 86.1 6.45
Q 86.1 5.65 85.85 5
M 82.1 4.45
Q 82.4 4.3 82.8 4.3 83.15 4.3 83.5 4.45 83.8 4.55 84.05 4.8 84.25 5.05 84.4 5.4 84.5 5.75 84.5 6.2
L 84.5 6.3 81.05 6.3 81.05 6.2
Q 81.05 5.75 81.2 5.4 81.3 5.05 81.55 4.8 81.75 4.55 82.1 4.45
M 93 5.35
Q 93.1 5.7 93.1 6.1
L 93.1 10.85 94.75 10.85 94.75 5.65
Q 94.75 4.95 94.55 4.45 94.35 3.95 94 3.65 93.65 3.3 93.2 3.15 92.7 3 92.15 3 91.55 3 91.15 3.15 90.75 3.25 90.45 3.5 90 3.9 89.8 4.5
L 89.7 4.5 89.7 3.1 88.1 3.1 88.1 10.85 89.75 10.85 89.75 6.55
Q 89.75 6.1 89.85 5.7 90 5.3 90.2 5.05 90.45 4.75 90.8 4.6 91.15 4.45 91.6 4.45 91.95 4.45 92.2 4.55 92.5 4.65 92.7 4.85 92.9 5.05 93 5.35
M 103.4 3.1
L 101.7 3.1 99.8 9.2 99.75 9.2 98 3.1 96.25 3.1 98.9 10.85 100.65 10.85 103.4 3.1
M 111.45 10.85
L 111.45 0.35 109.85 0.35 109.85 4.25 109.75 4.25
Q 109.65 3.95 109.45 3.75 109.2 3.5 108.95 3.35 108.65 3.15 108.3 3.1 107.95 3 107.5 3 106.85 3 106.3 3.25 105.75 3.45 105.4 3.9 105 4.3 104.8 4.95 104.55 5.55 104.55 6.35
L 104.55 7.6
Q 104.55 8.4 104.75 9 104.95 9.6 105.35 10.05 105.75 10.5 106.3 10.7 106.85 10.95 107.5 10.95 107.9 10.95 108.3 10.85 108.65 10.75 109 10.6 109.3 10.4 109.5 10.15 109.7 9.9 109.8 9.6
L 109.85 9.6 109.85 10.85 111.45 10.85
M 108 4.4
Q 108.35 4.4 108.7 4.55 109.05 4.65 109.3 4.9 109.55 5.2 109.7 5.55 109.85 5.9 109.85 6.35
L 109.85 7.5
Q 109.85 7.95 109.7 8.35 109.55 8.75 109.35 9 109.1 9.3 108.75 9.4 108.4 9.55 108 9.55 107.6 9.55 107.25 9.4 106.95 9.3 106.7 9 106.45 8.7 106.35 8.3 106.2 7.9 106.2 7.4
L 106.2 6.55
Q 106.2 6.05 106.35 5.65 106.45 5.25 106.7 4.95 106.9 4.7 107.25 4.55 107.55 4.4 108 4.4
M 117.1 3.1
Q 116.75 3.2 116.45 3.35 116.15 3.55 115.95 3.8 115.75 4.05 115.65 4.35
L 115.55 4.35 115.55 0.35 113.95 0.35 113.95 10.85 115.5 10.85 115.5 9.7 115.6 9.7
Q 115.75 10 115.95 10.2 116.15 10.45 116.45 10.6 116.75 10.8 117.1 10.85 117.45 10.95 117.85 10.95 118.55 10.95 119.1 10.75 119.65 10.5 120.05 10.05 120.45 9.6 120.6 9 120.85 8.35 120.85 7.55
L 120.85 6.4
Q 120.85 5.6 120.6 5 120.45 4.35 120.05 3.9 119.65 3.45 119.15 3.25 118.6 3 117.9 3 117.5 3 117.1 3.1
M 118.15 4.55
Q 118.5 4.7 118.7 5 118.95 5.25 119.05 5.7 119.15 6.1 119.15 6.65
L 119.15 7.35
Q 119.15 7.9 119.05 8.3 118.95 8.7 118.7 9 118.5 9.3 118.15 9.4 117.85 9.55 117.4 9.55 117 9.55 116.65 9.4 116.35 9.3 116.1 9 115.85 8.75 115.7 8.4 115.55 8 115.55 7.6
L 115.55 6.5
Q 115.55 6 115.7 5.6 115.8 5.25 116.05 4.95 116.3 4.7 116.65 4.55 117 4.4 117.4 4.4 117.8 4.4 118.15 4.55
M 122.7 9.85
Q 122.7 10.35 123.05 10.65 123.4 11 123.9 11 124.4 11 124.7 10.65 125.05 10.35 125.05 9.85 125.05 9.3 124.7 9 124.4 8.65 123.9 8.65 123.4 8.65 123.05 9 122.7 9.3 122.7 9.85
M 131.85 5.55
L 133.4 5.55
Q 133.35 5.05 133.15 4.55 132.95 4.1 132.55 3.75 132.15 3.4 131.6 3.2 131 2.95 130.3 2.95 129.55 2.95 128.9 3.2 128.3 3.45 127.85 3.9 127.4 4.35 127.2 5 126.95 5.65 126.95 6.4
L 126.95 7.5
Q 126.95 8.3 127.2 8.95 127.4 9.6 127.85 10.05 128.3 10.5 128.9 10.75 129.55 11 130.3 11 131.05 11 131.65 10.8 132.2 10.6 132.65 10.25 133 9.9 133.2 9.45 133.4 9 133.4 8.5
L 131.9 8.5
Q 131.8 9 131.45 9.25 131.05 9.6 130.35 9.6 129.95 9.6 129.6 9.45 129.3 9.3 129.05 9 128.8 8.75 128.7 8.35 128.6 7.95 128.6 7.5
L 128.6 6.45
Q 128.6 5.95 128.7 5.6 128.8 5.2 129.05 4.95 129.25 4.65 129.6 4.5 129.9 4.4 130.35 4.4 130.7 4.4 131 4.5 131.3 4.6 131.45 4.8 131.8 5.1 131.85 5.55
M 141.9 7.45
L 141.9 6.5
Q 141.9 5.65 141.65 5 141.4 4.35 140.95 3.9 140.5 3.45 139.85 3.2 139.2 2.95 138.45 2.95 137.7 2.95 137.05 3.2 136.45 3.45 135.95 3.95 135.5 4.4 135.25 5.05 135 5.7 135 6.5
L 135 7.45
Q 135 8.3 135.25 8.95 135.5 9.6 135.95 10.05 136.4 10.5 137.05 10.75 137.7 11 138.45 11 139.2 11 139.85 10.75 140.5 10.5 140.95 10.05 141.4 9.6 141.65 8.95 141.9 8.3 141.9 7.45
M 137.7 4.5
Q 138.05 4.35 138.45 4.35 138.9 4.35 139.25 4.5 139.55 4.65 139.8 4.95 140 5.25 140.15 5.65 140.25 6.05 140.25 6.55
L 140.25 7.4
Q 140.25 7.9 140.15 8.3 140.05 8.7 139.8 9 139.6 9.3 139.25 9.45 138.9 9.6 138.45 9.6 138 9.6 137.65 9.45 137.35 9.3 137.1 9 136.9 8.7 136.75 8.3 136.65 7.9 136.65 7.4
L 136.65 6.55
Q 136.65 6.05 136.75 5.65 136.9 5.25 137.1 4.95 137.35 4.65 137.7 4.5
M 153.4 3.15
Q 152.9 3 152.3 3 151.85 3 151.45 3.1 151.05 3.25 150.75 3.45 150.2 3.8 149.95 4.45
L 149.9 4.45
Q 149.8 4.1 149.65 3.85 149.45 3.6 149.2 3.4 148.9 3.2 148.55 3.1 148.2 3 147.75 3 147.25 3 146.85 3.1 146.5 3.25 146.25 3.45 145.8 3.8 145.65 4.35
L 145.55 4.35 145.55 3.1 143.95 3.1 143.95 10.85 145.6 10.85 145.6 6.05
Q 145.6 5.65 145.7 5.35 145.85 5.05 146.05 4.85 146.25 4.65 146.5 4.5 146.8 4.4 147.1 4.4 147.45 4.4 147.75 4.5 148 4.6 148.2 4.8 148.4 5 148.5 5.3 148.6 5.6 148.6 6
L 148.6 10.85 150.2 10.85 150.2 6.05
Q 150.2 5.7 150.3 5.4 150.45 5.1 150.65 4.85 150.85 4.65 151.15 4.5 151.4 4.4 151.75 4.4 152.1 4.4 152.35 4.5 152.65 4.6 152.85 4.8 153 5 153.1 5.3 153.2 5.55 153.2 5.95
L 153.2 10.85 154.85 10.85 154.85 5.4
Q 154.85 4.85 154.65 4.4 154.5 3.95 154.15 3.65 153.85 3.3 153.4 3.15 Z"/>
</g>
</defs>

<g transform="matrix( 1, 0, 0, 1, 0,0) ">
<use xlink:href="#Layer0_0_FILL"/>
</g>
</svg>
